#!OML:ASF E:\Style4\Style4.ASF
:FULLY-SPECIFIED
:DEGREES
1635
root 0.280795 17.423 -1.57794 -1.34553 -10.0252 3.0757
lowerback 8.83803 0.440588 -5.49025
upperback 6.17606 0.19565 -3.16518
thorax 1.46446 -0.019703 -0.212852
lowerneck 3.74303 0.914567 -5.41358
upperneck 0.444226 1.04873 7.24925
head -0.590448 0.457589 3.26962
rclavicle 3.24019e-014 3.10104e-014
rhumerus -3.64182 2.52877 -44.6863
rradius 79.9285
rwrist 8.83414
rhand -19.7231 9.97108
rfingers 7.12502
rthumb 6.60718 -19.9058
lclavicle 3.24019e-014 3.10104e-014
lhumerus -6.9509 -16.1491 65.8437
lradius 86.8109
lwrist -1.40303
lhand -15.9273 26.1896
lfingers 7.12502
lthumb 10.2702 55.9188
rfemur -19.8467 5.80993 14.445
rtibia 41.6015
rfoot -20.1556 -8.53208
rtoes -13.5992
lfemur -14.7274 5.43819 -22.6487
ltibia 38.5848
lfoot -23.4293 9.99392
ltoes -13.5132
1636
root 0.272994 17.4194 -1.57233 -1.36467 -9.7112 3.06991
lowerback 8.81554 0.474475 -5.40475
upperback 6.14789 0.247684 -3.16463
thorax 1.44497 0.0100899 -0.263482
lowerneck 3.68025 0.782058 -5.41016
upperneck 0.439745 0.874869 7.29484
head -0.569111 0.371573 3.2879
rclavicle 2.80286e-014 1.98785e-014
rhumerus -3.83559 3.37828 -44.8403
rradius 80.4382
rwrist 7.71975
rhand -20.0226 9.71844
rfingers 7.12502
rthumb 6.31796 -20.1673
lclavicle 2.80286e-014 1.98785e-014
lhumerus -7.55157 -17.2315 66.0813
lradius 87.1319
lwrist -0.219848
lhand -15.3056 25.8299
lfingers 7.12502
lthumb 10.87 55.5285
rfemur -19.7411 5.73943 14.4833
rtibia 41.6393
rfoot -20.1949 -8.78667
rtoes -13.7858
lfemur -14.7325 5.34321 -22.6142
ltibia 38.5985
lfoot -23.4229 9.93661
ltoes -14.0736
1637
root 0.266239 17.4178 -1.56351 -1.41031 -9.3863 3.12785
lowerback 8.77825 0.490539 -5.38771
upperback 6.14132 0.273827 -3.15686
thorax 1.45757 0.0238366 -0.266646
lowerneck 3.56393 0.67665 -5.45726
upperneck 0.399217 0.739048 7.32977
head -0.552678 0.305438 3.31147
rclavicle -2.46493e-014 2.46493e-014
rhumerus -3.92198 4.26359 -44.9807
rradius 80.9041
rwrist 6.61092
rhand -20.0488 9.55156
rfingers 7.12502
rthumb 6.29269 -20.335
lclavicle -2.46493e-014 2.46493e-014
lhumerus -8.14297 -18.2014 66.329
lradius 87.4775
lwrist 0.900855
lhand -14.2843 25.4501
lfingers 7.12502
lthumb 11.855 55.0945
rfemur -19.6004 5.62231 14.4413
rtibia 41.6758
rfoot -20.2956 -8.97332
rtoes -13.8015
lfemur -14.6738 5.20736 -22.6544
ltibia 38.5808
lfoot -23.4445 9.85486
ltoes -14.2688
1638
root 0.262273 17.4186 -1.5561 -1.4097 -9.11964 3.15845
lowerback 8.7225 0.529359 -5.31739
upperback 6.09695 0.333016 -3.14772
thorax 1.43934 0.0567174 -0.300194
lowerneck 3.49819 0.552252 -5.44551
upperneck 0.358221 0.577849 7.33528
head -0.542787 0.225948 3.31386
rclavicle -3.02153e-014 3.73715e-014
rhumerus -4.11133 5.20102 -45.1362
rradius 81.4326
rwrist 5.3753
rhand -19.9113 9.40996
rfingers 7.12502
rthumb 6.4254 -20.4726
lclavicle -3.02153e-014 3.73715e-014
lhumerus -8.76368 -19.1903 66.5454
lradius 87.8807
lwrist 1.96945
lhand -12.9792 24.9492
lfingers 7.12502
lthumb 13.1133 54.5169
rfemur -19.5191 5.48345 14.4086
rtibia 41.7015
rfoot -20.3811 -9.03736
rtoes -13.5893
lfemur -14.6423 5.07303 -22.6833
ltibia 38.5515
lfoot -23.4091 9.78394
ltoes -14.3901
1639
root 0.257996 17.4186 -1.54856 -1.45358 -8.91081 3.24713
lowerback 8.71059 0.588091 -5.32392
upperback 6.04029 0.409027 -3.1596
thorax 1.38416 0.0968366 -0.314227
lowerneck 3.4388 0.427931 -5.40617
upperneck 0.390621 0.414057 7.34982
head -0.510321 0.145335 3.31368
rclavicle 1.88845e-014 4.29375e-014
rhumerus -4.32545 6.2755 -45.3465
rradius 81.9982
rwrist 3.8899
rhand -19.9095 9.229
rfingers 7.12502
rthumb 6.42722 -20.6535
lclavicle 1.88845e-014 4.29375e-014
lhumerus -9.37508 -20.2469 66.6695
lradius 88.2975
lwrist 3.2717
lhand -11.8134 24.2197
lfingers 7.12502
lthumb 14.2368 53.7117
rfemur -19.4191 5.43121 14.3228
rtibia 41.7262
rfoot -20.4248 -9.17216
rtoes -13.6431
lfemur -14.5581 4.98567 -22.7699
ltibia 38.4945
lfoot -23.3621 9.6356
ltoes -14.1729
1640
root 0.251192 17.4187 -1.54054 -1.45746 -8.68576 3.24241
lowerback 8.62851 0.640815 -5.28107
upperback 6.00297 0.487117 -3.12104
thorax 1.38718 0.137242 -0.303199
lowerneck 3.34877 0.315819 -5.43773
upperneck 0.429266 0.265152 7.41471
head -0.47213 0.0723611 3.34412
rclavicle 2.14687e-014 5.00937e-014
rhumerus -4.49321 7.36439 -45.4865
rradius 82.5321
rwrist 2.34232
rhand -19.7888 9.29829
rfingers 7.12502
rthumb 6.5437 -20.5806
lclavicle 2.14687e-014 5.00937e-014
lhumerus -9.94585 -21.3276 66.7865
lradius 88.7303
lwrist 4.78321
lhand -10.8773 23.6168
lfingers 7.12502
lthumb 15.1387 53.0431
rfemur -19.3468 5.43183 14.3611
rtibia 41.7576
rfoot -20.4618 -9.42803
rtoes -13.6567
lfemur -14.5168 4.90639 -22.7428
ltibia 38.4375
lfoot -23.3098 9.4986
ltoes -14.0277
1641
root 0.243958 17.4178 -1.53315 -1.46627 -8.45279 3.2688
lowerback 8.52989 0.716116 -5.2399
upperback 5.98806 0.597474 -3.08522
thorax 1.42178 0.192933 -0.296187
lowerneck 3.23593 0.176633 -5.46634
upperneck 0.42479 0.0827925 7.42549
head -0.440861 -0.0166916 3.35563
rclavicle 3.39922e-014 8.74653e-015
rhumerus -4.65302 8.35611 -45.5868
rradius 82.9997
rwrist 0.848648
rhand -19.4523 9.59988
rfingers 7.12502
rthumb 6.86853 -20.2687
lclavicle 3.39922e-014 8.74653e-015
lhumerus -10.4103 -22.4481 66.8858
lradius 89.1083
lwrist 6.1749
lhand -9.85131 22.9982
lfingers 7.12502
lthumb 16.1268 52.3473
rfemur -19.2781 5.39725 14.3603
rtibia 41.806
rfoot -20.5206 -9.63276
rtoes -13.6909
lfemur -14.4726 4.81323 -22.7496
ltibia 38.3765
lfoot -23.2803 9.39071
ltoes -13.991
1642
root 0.238317 17.4167 -1.5275 -1.4728 -8.22799 3.35678
lowerback 8.46804 0.844449 -5.2011
upperback 5.92449 0.772471 -3.1067
thorax 1.38411 0.283845 -0.352041
lowerneck 3.24143 -0.0163252 -5.39799
upperneck 0.383463 -0.170996 7.44942
head -0.436923 -0.143877 3.35436
rclavicle 2.98177e-015 -2.70347e-014
rhumerus -4.92281 9.24372 -45.7972
rradius 83.4378
rwrist -0.639553
rhand -19.0062 9.70018
rfingers 7.12502
rthumb 7.29914 -20.1539
lclavicle 2.98177e-015 -2.70347e-014
lhumerus -10.8319 -23.8038 66.8885
lradius 89.509
lwrist 7.40186
lhand -8.49663 22.4034
lfingers 7.12502
lthumb 17.4309 51.6418
rfemur -19.2285 5.32885 14.2696
rtibia 41.8649
rfoot -20.6263 -9.72632
rtoes -13.4648
lfemur -14.4448 4.70509 -22.8361
ltibia 38.325
lfoot -23.2549 9.30165
ltoes -13.9832
1643
root 0.234901 17.4159 -1.52152 -1.46509 -8.03552 3.41829
lowerback 8.40453 0.996898 -5.09925
upperback 5.83599 0.982286 -3.16385
thorax 1.32191 0.395253 -0.48244
lowerneck 3.32405 -0.242755 -5.09099
upperneck 0.305563 -0.462525 7.37686
head -0.455544 -0.290842 3.27474
rclavicle -1.09332e-014 9.54166e-015
rhumerus -5.27334 10.1683 -46.087
rradius 83.8965
rwrist -2.21391
rhand -18.5673 9.96092
rfingers 7.12502
rthumb 7.7228 -19.8781
lclavicle -1.09332e-014 9.54166e-015
lhumerus -11.2291 -25.368 66.7996
lradius 89.9663
lwrist 8.86016
lhand -7.28968 21.9029
lfingers 7.12502
lthumb 18.5922 51.0344
rfemur -19.1909 5.26598 14.1941
rtibia 41.9163
rfoot -20.7132 -9.76583
rtoes -13.3625
lfemur -14.4273 4.60846 -22.9077
ltibia 38.28
lfoot -23.1812 9.28537
ltoes -14.2612
1644
root 0.230596 17.4142 -1.51516 -1.4504 -7.87322 3.44903
lowerback 8.33445 1.08919 -5.01992
upperback 5.7793 1.11287 -3.15508
thorax 1.29818 0.464023 -0.52605
lowerneck 3.22715 -0.394617 -4.97377
upperneck 0.270964 -0.656698 7.30645
head -0.436266 -0.385704 3.22988
rclavicle -8.94531e-015 3.65764e-014
rhumerus -5.3998 11.2848 -46.2642
rradius 84.3973
rwrist -3.84136
rhand -18.0431 10.4263
rfingers 7.12502
rthumb 8.22872 -19.3935
lclavicle -8.94531e-015 3.65764e-014
lhumerus -11.6392 -26.7594 66.7016
lradius 90.458
lwrist 10.4338
lhand -6.26795 21.4962
lfingers 7.12502
lthumb 19.5748 50.5308
rfemur -19.1632 5.19321 14.172
rtibia 41.949
rfoot -20.7388 -9.88433
rtoes -13.5772
lfemur -14.4126 4.5254 -22.9387
ltibia 38.2444
lfoot -23.167 9.26027
ltoes -14.2506
1645
root 0.22534 17.4134 -1.50741 -1.48366 -7.69709 3.50855
lowerback 8.30323 1.13479 -4.9956
upperback 5.74906 1.17627 -3.11338
thorax 1.28138 0.496602 -0.500601
lowerneck 2.91422 -0.497661 -5.12708
upperneck 0.451382 -0.796942 7.37203
head -0.313924 -0.449317 3.28018
rclavicle -2.80286e-014 1.66979e-014
rhumerus -5.35888 12.5701 -46.3295
rradius 84.914
rwrist -5.65742
rhand -17.501 10.876
rfingers 7.12502
rthumb 8.75186 -18.9226
lclavicle -2.80286e-014 1.66979e-014
lhumerus -11.9885 -28.0345 66.5603
lradius 90.9402
lwrist 11.9786
lhand -5.32673 21.1972
lfingers 7.12502
lthumb 20.4795 50.1371
rfemur -19.0583 5.11883 14.1274
rtibia 41.9531
rfoot -20.743 -10.0339
rtoes -13.7108
lfemur -14.353 4.41654 -22.9904
ltibia 38.2142
lfoot -23.1345 9.16544
ltoes -14.0838
1646
root 0.218961 17.4137 -1.49974 -1.51743 -7.54179 3.50601
lowerback 8.29924 1.17546 -4.93054
upperback 5.69576 1.2324 -3.03776
thorax 1.22536 0.526985 -0.462826
lowerneck 2.62621 -0.591211 -5.36502
upperneck 0.657182 -0.928097 7.47186
head -0.18765 -0.509038 3.35864
rclavicle -6.36111e-015 1.51076e-014
rhumerus -5.30126 14.0023 -46.3486
rradius 85.554
rwrist -7.74852
rhand -16.976 10.9863
rfingers 7.12502
rthumb 9.25854 -18.7904
lclavicle -6.36111e-015 1.51076e-014
lhumerus -12.3257 -29.3341 66.4003
lradius 91.4472
lwrist 13.5252
lhand -4.65511 20.9542
lfingers 7.12502
lthumb 21.1248 49.8234
rfemur -18.9377 5.10606 14.1534
rtibia 41.9311
rfoot -20.8182 -10.1439
rtoes -13.4974
lfemur -14.2822 4.30771 -22.969
ltibia 38.1771
lfoot -23.0928 9.03934
ltoes -13.7417
1647
root 0.213375 17.4154 -1.49405 -1.50006 -7.38476 3.50267
lowerback 8.2747 1.26661 -4.81208
upperback 5.61668 1.35929 -2.96661
thorax 1.15276 0.594857 -0.464465
lowerneck 2.43675 -0.740034 -5.59251
upperneck 0.758224 -1.13062 7.52869
head -0.106375 -0.606747 3.42194
rclavicle 2.5842e-014 3.33958e-014
rhumerus -5.33027 15.3307 -46.3874
rradius 86.1694
rwrist -9.79784
rhand -16.419 11.0993
rfingers 7.12502
rthumb 9.79589 -18.6528
lclavicle 2.5842e-014 3.33958e-014
lhumerus -12.6038 -30.755 66.2307
lradius 92.0057
lwrist 14.9344
lhand -4.0686 20.5551
lfingers 7.12502
lthumb 21.6881 49.3603
rfemur -18.8824 5.09989 14.1733
rtibia 41.9061
rfoot -20.9062 -10.2021
rtoes -13.2637
lfemur -14.2603 4.22171 -22.9513
ltibia 38.1164
lfoot -23.0904 9.03598
ltoes -13.9856
